<svg width="32" height="32" viewBox="0 0 32 32" fill="none" xmlns="http://www.w3.org/2000/svg">
<path d="M17.2917 25.7071C17.1987 25.6142 17.125 25.5039 17.0747 25.3825C17.0243 25.2611 16.9984 25.131 16.9984 24.9996C16.9984 24.8682 17.0243 24.738 17.0747 24.6166C17.125 24.4952 17.1987 24.385 17.2917 24.2921L24.5855 16.9996L4.99922 16.9996C4.734 16.9996 4.47964 16.8942 4.29211 16.7067C4.10457 16.5191 3.99922 16.2648 3.99922 15.9996C3.99922 15.7344 4.10457 15.48 4.29211 15.2925C4.47964 15.1049 4.734 14.9996 4.99922 14.9996L24.5855 14.9996L17.2917 7.70708C17.1041 7.51944 16.9987 7.26494 16.9987 6.99958C16.9987 6.73421 17.1041 6.47972 17.2917 6.29208C17.4794 6.10444 17.7338 5.99902 17.9992 5.99902C18.2646 5.99902 18.5191 6.10444 18.7067 6.29208L27.7067 15.2921C27.7997 15.385 27.8734 15.4952 27.9238 15.6166C27.9741 15.738 28 15.8682 28 15.9996C28 16.131 27.9741 16.2611 27.9238 16.3825C27.8734 16.5039 27.7997 16.6142 27.7067 16.7071L18.7067 25.7071C18.6138 25.8001 18.5036 25.8738 18.3822 25.9241C18.2608 25.9745 18.1306 26.0004 17.9992 26.0004C17.8678 26.0004 17.7377 25.9745 17.6163 25.9241C17.4949 25.8738 17.3846 25.8001 17.2917 25.7071Z" fill="url(#paint0_linear_840_649)"/>
<defs>
<linearGradient id="paint0_linear_840_649" x1="15.9996" y1="5.99902" x2="15.9996" y2="26.0004" gradientUnits="userSpaceOnUse">
<stop stop-color="#9747FF"/>
<stop offset="1" stop-color="#1677E0"/>
</linearGradient>
</defs>
</svg>
