<svg width="40" height="40" viewBox="0 0 40 40" fill="none" xmlns="http://www.w3.org/2000/svg">
<path d="M6.66634 33.3333C5.74967 33.3333 4.96523 33.0072 4.31301 32.355C3.66079 31.7027 3.33412 30.9177 3.33301 30V9.99996C3.33301 9.08329 3.65967 8.29885 4.31301 7.64663C4.96634 6.9944 5.75079 6.66774 6.66634 6.66663H33.333C34.2497 6.66663 35.0347 6.99329 35.688 7.64663C36.3413 8.29996 36.6674 9.0844 36.6663 9.99996V30C36.6663 30.9166 36.3402 31.7016 35.688 32.355C35.0358 33.0083 34.2508 33.3344 33.333 33.3333H6.66634ZM19.9997 21.6666L33.333 13.3333V9.99996L19.9997 18.3333L6.66634 9.99996V13.3333L19.9997 21.6666Z" fill="#0C417A"/>
</svg>
