<svg width="28" height="36" viewBox="0 0 28 36" fill="none" xmlns="http://www.w3.org/2000/svg">
<path d="M14.0003 27.3334C14.8844 27.3334 15.7322 26.9822 16.3573 26.357C16.9825 25.7319 17.3337 24.8841 17.3337 24C17.3337 23.116 16.9825 22.2681 16.3573 21.643C15.7322 21.0179 14.8844 20.6667 14.0003 20.6667C13.1163 20.6667 12.2684 21.0179 11.6433 21.643C11.0182 22.2681 10.667 23.116 10.667 24C10.667 24.8841 11.0182 25.7319 11.6433 26.357C12.2684 26.9822 13.1163 27.3334 14.0003 27.3334ZM24.0003 12.3334C24.8844 12.3334 25.7322 12.6845 26.3573 13.3097C26.9825 13.9348 27.3337 14.7826 27.3337 15.6667V32.3334C27.3337 33.2174 26.9825 34.0653 26.3573 34.6904C25.7322 35.3155 24.8844 35.6667 24.0003 35.6667H4.00033C3.11627 35.6667 2.26842 35.3155 1.6433 34.6904C1.01818 34.0653 0.666992 33.2174 0.666992 32.3334V15.6667C0.666992 14.7826 1.01818 13.9348 1.6433 13.3097C2.26842 12.6845 3.11627 12.3334 4.00033 12.3334H5.66699V9.00002C5.66699 6.78988 6.54497 4.67027 8.10777 3.10746C9.67057 1.54466 11.7902 0.666687 14.0003 0.666687C15.0947 0.666687 16.1783 0.882235 17.1894 1.30102C18.2004 1.71981 19.1191 2.33364 19.8929 3.10746C20.6667 3.88129 21.2805 4.79994 21.6993 5.81099C22.1181 6.82204 22.3337 7.90567 22.3337 9.00002V12.3334H24.0003ZM14.0003 4.00002C12.6742 4.00002 11.4025 4.5268 10.4648 5.46449C9.52711 6.40217 9.00033 7.67394 9.00033 9.00002V12.3334H19.0003V9.00002C19.0003 7.67394 18.4735 6.40217 17.5359 5.46449C16.5982 4.5268 15.3264 4.00002 14.0003 4.00002Z" fill="#0C417A"/>
</svg>
