<svg width="50" height="50" viewBox="0 0 50 50" fill="none" xmlns="http://www.w3.org/2000/svg">
<path d="M8.33398 37.4996C8.33398 35.2895 9.21196 33.1698 10.7748 31.607C12.3376 30.0442 14.4572 29.1663 16.6673 29.1663H33.334C35.5441 29.1663 37.6637 30.0442 39.2265 31.607C40.7893 33.1698 41.6673 35.2895 41.6673 37.4996C41.6673 38.6047 41.2283 39.6645 40.4469 40.4459C39.6655 41.2273 38.6057 41.6663 37.5006 41.6663H12.5007C11.3956 41.6663 10.3358 41.2273 9.55437 40.4459C8.77297 39.6645 8.33398 38.6047 8.33398 37.4996Z" stroke="white" stroke-width="3" stroke-linejoin="round"/>
<path d="M25 20.8333C28.4518 20.8333 31.25 18.035 31.25 14.5833C31.25 11.1315 28.4518 8.33325 25 8.33325C21.5482 8.33325 18.75 11.1315 18.75 14.5833C18.75 18.035 21.5482 20.8333 25 20.8333Z" stroke="white" stroke-width="3"/>
</svg>
