<svg width="23" height="21" viewBox="0 0 23 21" fill="none" xmlns="http://www.w3.org/2000/svg">
<path d="M11.016 0.693289C11.1617 0.244652 11.7966 0.244652 11.9423 0.693289L14.1034 7.34423C14.1685 7.54488 14.3555 7.68076 14.5665 7.68076H21.5597C22.0315 7.68076 22.2276 8.28446 21.846 8.56177L16.1884 12.6723C16.0176 12.7962 15.9462 13.0161 16.0114 13.2167L18.1725 19.8677C18.3183 20.3163 17.8047 20.6895 17.423 20.4122L11.7654 16.3017C11.5947 16.1777 11.3636 16.1777 11.1929 16.3017L5.53528 20.4122C5.15361 20.6895 4.64006 20.3163 4.78584 19.8677L6.94686 13.2167C7.01206 13.0161 6.94063 12.7962 6.76995 12.6723L1.11233 8.56177C0.730651 8.28446 0.926811 7.68076 1.3986 7.68076H8.39178C8.60277 7.68076 8.78976 7.54488 8.85496 7.34423L11.016 0.693289Z" fill="#FFC107"/>
</svg>
