<svg width="40" height="40" viewBox="0 0 40 40" fill="none" xmlns="http://www.w3.org/2000/svg">
<path d="M37.5 30V27.5H34.8738C34.7128 26.7175 34.4021 25.9734 33.9587 25.3088L35.8212 23.4462L34.0537 21.6788L32.1912 23.5413C31.5266 23.0979 30.7825 22.7872 30 22.6262V20H27.5V22.6262C26.7175 22.7872 25.9734 23.0979 25.3088 23.5413L23.4462 21.6788L21.6788 23.4462L23.5413 25.3088C23.0979 25.9734 22.7872 26.7175 22.6262 27.5H20V30H22.6262C22.7887 30.7962 23.1062 31.5363 23.5413 32.1912L21.6788 34.0537L23.4462 35.8212L25.3088 33.9587C25.9734 34.4021 26.7175 34.7128 27.5 34.8738V37.5H30V34.8738C30.7825 34.7128 31.5266 34.4021 32.1912 33.9587L34.0537 35.8212L35.8212 34.0537L33.9587 32.1912C34.4021 31.5266 34.7128 30.7825 34.8738 30H37.5ZM28.75 32.5C26.6825 32.5 25 30.8175 25 28.75C25 26.6825 26.6825 25 28.75 25C30.8175 25 32.5 26.6825 32.5 28.75C32.5 30.8175 30.8175 32.5 28.75 32.5ZM15 7.5H20V10H15V7.5Z" fill="#0C417A"/>
<path d="M7.5 35V5H27.5V16.25H30V5C30 3.62125 28.8787 2.5 27.5 2.5H7.5C6.12125 2.5 5 3.62125 5 5V35C5 36.3787 6.12125 37.5 7.5 37.5H17.5V35H7.5Z" fill="#0C417A"/>
</svg>
